<svg xmlns="http://www.w3.org/2000/svg" viewBox="0 0 280 60" fill="none">
  <!-- Background circle -->
  <circle cx="30" cy="30" r="28" fill="url(#gradient)" stroke="white" stroke-width="2"/>
  
  <!-- Book icon -->
  <path d="M20 15h8v22h-8a2 2 0 0 1-2-2V17a2 2 0 0 1 2-2zm16 0h-8v22h8a2 2 0 0 0 2-2V17a2 2 0 0 0-2-2z" fill="white"/>
  
  <!-- Rocket icon -->
  <path d="M30 20c1.2-1.2 3.2-1.2 4.4 0s1.2 3.2 0 4.4c-.4.4-.8.7-1.2.9l-.4 2-1.5-.6c-.5.1-1 .1-1.4-.1-1.2-1.2-1.2-3.2 0-4.5z" fill="white"/>
  
  <!-- Gradient definition -->
  <defs>
    <linearGradient id="gradient" x1="0%" y1="0%" x2="100%" y2="100%">
      <stop offset="0%" style="stop-color:#3B82F6;stop-opacity:1" />
      <stop offset="100%" style="stop-color:#22C55E;stop-opacity:1" />
    </linearGradient>
  </defs>
  
  <!-- Text -->
  <text x="70" y="38" font-family="Arial, sans-serif" font-size="26" font-weight="900" fill="white">
    Vocab<tspan fill="#22C55E">Boost</tspan>
  </text>
</svg>
